<?xml version="1.0" encoding="utf-8"?>
<!-- Generator: Adobe Illustrator 27.5.0, SVG Export Plug-In . SVG Version: 6.00 Build 0)  -->
<svg version="1.1" id="Layer_1" xmlns="http://www.w3.org/2000/svg" xmlns:xlink="http://www.w3.org/1999/xlink" x="0px" y="0px"
	 viewBox="0 0 3426.762 2000" style="enable-background:new 0 0 3426.762 2000;" xml:space="preserve">
<g>
	<path style="fill:#A3D1E6;" d="M446.653,1731.24c0,0-321.905-290.035-141.941-804.296
		c103.25-295.046,801.684-916.583,2234.598-706.978c943.214,137.972,138.24,1261.559,504.742,1449.154
		c116,59.375,132,98.167,132,98.167L446.653,1731.24z"/>
	<linearGradient id="SVGID_1_" gradientUnits="userSpaceOnUse" x1="286.1201" y1="1080.5067" x2="3176.0527" y2="1080.5067">
		<stop  offset="0" style="stop-color:#BCE3F1"/>
		<stop  offset="1" style="stop-color:#D0F7FF"/>
	</linearGradient>
	<path style="fill:url(#SVGID_1_);" d="M446.653,1731.24l2729.399,36.048c0,0-16-38.792-132-98.167
		c-174.386-89.261-83.555-390.426-42.017-696.497c-166.292-526.34-540.362-622.502-887.065-563.673
		c-636.49,108-718.944,862.573-958.839,759.872c-239.894-102.703-482.259-270.07-735.079-107.66
		c-97.695,62.759-145.885,174.043-132.037,332.852c1.642,18.823,0.241,42.303-2.897,68.767
		C342.887,1637.731,446.653,1731.24,446.653,1731.24z"/>
	<path style="fill:#FE978E;" d="M3143.99,1804.95H328.317c-39.602,0-71.706-32.104-71.706-71.706v-11.878h2959.086v11.878
		C3215.697,1772.847,3183.593,1804.95,3143.99,1804.95z"/>
	<g>
		<path style="fill:#948FA8;" d="M2269.488,792.018l51.111,224.617c2.396,10.537-5.678,20.574-16.68,20.732l-240.529,3.477
			c-7.8,0.113-14.718-4.897-16.908-12.244l-67.979-228.094c-3.25-10.898,5.08-21.803,16.65-21.803h257.399
			C2260.68,778.703,2267.717,784.236,2269.488,792.018z"/>
		<path style="fill:#686476;" d="M2279.09,792.273l51.111,228.927c2.396,10.739-5.678,20.968-16.68,21.13l-240.529,3.543
			c-7.8,0.115-14.719-4.991-16.908-12.48l-67.979-232.469c-3.249-11.108,5.081-22.221,16.651-22.221h257.398
			C2270.28,778.703,2277.317,784.342,2279.09,792.273z"/>
		<path style="fill:#4E4473;" d="M2313.4,1034.101c2.757-0.04,5.317-1.305,7.025-3.468c1.709-2.164,2.344-4.948,1.742-7.64
			l-51.11-228.927c-0.938-4.2-4.6-7.134-8.903-7.134h-257.398c-2.898,0-5.559,1.331-7.297,3.651c-1.739,2.32-2.27,5.247-1.455,8.031
			l67.979,232.47c1.131,3.863,4.729,6.562,8.751,6.562L2313.4,1034.101z"/>
		<path style="opacity:0.22;fill:#686476;" d="M2283.049,810.009l47.152,211.191c2.396,10.739-5.678,20.968-16.68,21.13
			l-158.779,2.339c-23.798-43.308-63.129-121.302-63.129-163.738C2091.613,839.633,2208.169,819.003,2283.049,810.009z"/>
		<path style="fill:#948FA8;" d="M1383.092,817.786l-40.602,201.817c-1.904,9.467,4.51,18.485,13.249,18.628l191.071,3.123
			c6.196,0.102,11.692-4.4,13.432-11.002l54.001-204.94c2.581-9.792-4.036-19.589-13.228-19.589h-204.471
			C1390.09,805.823,1384.5,810.794,1383.092,817.786z"/>
		<path style="fill:#686476;" d="M1375.465,818.016l-40.602,205.688c-1.904,9.649,4.51,18.841,13.25,18.985l191.07,3.184
			c6.197,0.103,11.692-4.484,13.432-11.213l54.001-208.872c2.581-9.981-4.036-19.965-13.228-19.965h-204.471
			C1382.463,805.823,1376.873,810.89,1375.465,818.016z"/>
		<path style="fill:#4E4473;" d="M1348.209,1035.296c-2.189-0.036-4.224-1.172-5.581-3.115c-1.357-1.944-1.862-4.446-1.384-6.865
			l40.602-205.688c0.745-3.773,3.653-6.41,7.072-6.41h204.471c2.303,0,4.416,1.195,5.797,3.28c1.381,2.085,1.803,4.715,1.156,7.216
			l-54.001,208.872c-0.898,3.471-3.756,5.896-6.951,5.896L1348.209,1035.296z"/>
		<path style="opacity:0.22;fill:#686476;" d="M1372.319,833.951l-37.456,189.753c-1.904,9.649,4.51,18.841,13.25,18.985
			l126.13,2.102c18.905-38.911,50.148-108.988,50.148-147.118C1524.391,860.568,1431.803,842.032,1372.319,833.951z"/>
		<path style="fill:#948FA8;" d="M2431.742,1048.388h-367.224c-4.924,0-8.915-6.551-8.915-14.631l0,0h390.564l0,0
			C2443.436,1042.724,2437.852,1048.388,2431.742,1048.388z"/>
		<path style="fill:#948FA8;" d="M1539.919,1048.388h-367.224c-4.924,0-8.915-6.551-8.915-14.631l0,0h390.564l0,0
			C1551.613,1042.724,1546.028,1048.388,1539.919,1048.388z"/>
		<g>
			
				<rect x="2442.299" y="1068.135" transform="matrix(-1 -1.224647e-16 1.224647e-16 -1 4905.0625 2775.0586)" style="fill:#4C4272;" width="20.465" height="638.789"/>
			<path style="fill:#FF7C4F;" d="M1033.527,1498.624c0,0-51.305,41.659-59.345,49.699c-8.041,8.039,59.345,71.626,59.345,71.626
				s-6.882-64.745,0-71.626c6.88-6.88,45.942-11.687,45.942-11.687L1033.527,1498.624z"/>
			<path style="fill:#F9F8BD;" d="M1004.922,1512.315c0,0-55.18,29.204-55.18,40.819c0,11.611,75.492,107.901,85.417,113.385
				c14.182,7.834,63.131,11.854,71.207,3.78c8.075-8.076-14.248-25.147-26.896-37.796s-22.954-31.748-22.954-43.843
				s23.622-44.824,0-44.824C1032.891,1543.837,1004.922,1512.315,1004.922,1512.315z"/>
			<path style="fill:#FF7C4F;" d="M993.459,1597.731l-15.985,31.626c-7.361,14.558-19.378,26.237-34.14,33.179l0,0l37.044,60.319
				c0,0,52.352,34.744,72.214,26.711c19.863-8.034-42.173-37.49-42.173-37.49l26.251-86.123L993.459,1597.731z"/>
			<path style="fill:#FF682B;" d="M1347.781,793.906c3.829,4.86,9.373,37.083,3.2,43.254c-9.884,9.884-22.998,21.6-22.998,33.158
				c0,11.558,7.279,160.784-26.829,168.093c-34.106,7.308-156.379-118.285-156.379-118.285l49.7-60.663
				c0,0,78.448,93.552,78.448,83.807c0-9.745,31.67-84.782,31.67-84.782l-15.591-31.184c0,0-9.345-30.463,9.172-38.259
				C1316.691,781.249,1343.952,789.045,1347.781,793.906z"/>
			<g>
				<path style="fill:#FF5921;" d="M1301.389,1008.087c24.071-13.337,24.306-110.405,26.597-137.397
					c0.134,14.042,6.95,160.483-26.831,167.722c-34.106,7.308-156.379-118.285-156.379-118.285l22.929-27.985
					C1198.99,929.52,1278.658,1020.682,1301.389,1008.087z"/>
			</g>
			<path style="fill:#507EEF;" d="M1072.895,754.038c0,0,11.08-6.515,36.029,4.205c24.951,10.72,108.903,113.287,108.903,113.287
				l-72.466,62.368c0,0-33.756-38.559-66.889-89.931C1045.339,792.594,1072.895,754.038,1072.895,754.038z"/>
			<path style="fill:#000563;" d="M942.862,1137.568l20.368,12.24c0,0,379.82,69.618,394.925,131.013
				c15.105,61.394-296.008,267.502-296.008,267.502l-58.712-46.776c0,0,197.703-136.309,175.411-158.601
				c-22.292-22.291-285.043-72.355-285.043-72.355L942.862,1137.568z"/>
			<path style="fill:#FF7C4F;" d="M2256.744,1630.113c0,0-12.184,101.968-18.878,101.968s-137.907,0-137.907,0
				s74.643-30.311,88.57-44.237c13.926-13.927,28.605-61.555,28.605-61.555L2256.744,1630.113z"/>
			<path style="fill:#C22C0D;" d="M2247.751,1706.1c0,0-81.634,11.719-92.108,1.244c-10.477-10.475-60.655,18.588-60.655,24.737
				c0,6.15,132.784,11.779,154.706,4.639C2257.063,1734.319,2247.751,1709.879,2247.751,1706.1z"/>
			<path style="fill:#FF7C4F;" d="M2485.421,677.479c0,0,0.937,58.316-11.085,88.636c-12.021,30.321,81.4,27.864,81.4,27.864
				l-11.475-177.827L2485.421,677.479z"/>
			<path style="fill:#FF5921;" d="M2485.421,677.479l28.598-29.806c1.278,19.158,0.715,34.7-2.042,41.074
				c-5.172,11.951-16.358,22.984-28.135,28.674C2485.717,695.902,2485.421,677.479,2485.421,677.479z"/>
			<path style="fill:#FFFFFF;" d="M2421.156,663.228v51.858c0,11.912-9.656,21.569-21.568,21.569h-18.484
				c-11.912,0-21.569-9.657-21.569-21.569v-58.435h61.622V663.228z"/>
			<path style="fill:#FF7C4F;" d="M2297.219,758.242c0,0,23.023-48.969,33.621-59.567c10.598-10.598,28.694-22.224,28.694-22.224
				s0,22.375,0,23.5c0,7.743,0,19,23.929,11.516c11.51-3.6,20.961-6.428,13.924,3.15c-11.987,16.316-43.891,41.798-54.853,45.817
				l0,0c-4.616,0-8.749,2.864-10.37,7.186l-2.785,7.431l-32.16-8.77V758.242z"/>
			<path style="fill:#E8462C;" d="M2334.859,767.743c0,0-8.771,130.827-13.156,168.103c-4.385,37.274-67.24,57.036-67.24,57.036
				s0-31.455,0-81.885c0-50.432,40.197-152.754,40.197-152.754L2334.859,767.743z"/>
			<path style="fill:#BB4C48;" d="M1057.373,1077.638h1631.936l0,0c0-16.316-13.226-29.543-29.542-29.543H1086.913
				C1070.599,1048.095,1057.373,1061.321,1057.373,1077.638L1057.373,1077.638z"/>
			<path style="fill:#BF544C;" d="M808.611,1072.896c0,0-87.909-24.802-114.095-16.212l34.652,102.797l104.436-17.853
				L808.611,1072.896z"/>
			<path style="fill:#FF7C4F;" d="M2465.199,524.604c0,0-23.875,15.105-29.235,28.748c-5.358,13.643,0.487,113.529,14.62,133.02
				c14.127,19.491,50.674,1.463,61.393-19.977C2522.695,644.956,2500.281,503.652,2465.199,524.604z"/>
			<path style="fill:#FF5136;" d="M2319.512,854.719c23.832-35.753,49.147-64.063,70.539-84.904
				c28.366-27.64,68.896-38.791,107.556-30.179c9.121,2.031,18.873,4.12,28.854,6.132c54.055,10.893,93.513,57.522,94.907,112.647
				l6.864,271.484c1.809,71.521-60.137,129.323-131.084,120.114c-13.313-1.727-24.373-5.471-31.074-12.17
				c-32.16-32.158-18.43-234.04-32.074-272.046c-8.809-24.542-13.459-24.343-14.838-56.44c0,0-114.987,125.157-138.388,125.157
				c-26.312,0-26.312-25.581-26.312-56.765C2254.463,946.566,2262.502,940.232,2319.512,854.719z"/>
			<path style="fill:#D92F14;" d="M2497.606,739.636c9.121,2.031,18.873,4.12,28.854,6.132
				c54.055,10.893,93.513,57.522,94.907,112.647l3.96,156.702c-9.422,2.471-18.957,3.437-28.329,2.566
				c-69.099-6.421-138.685-69.627-141.921-135.666c-2.564-52.297,14.396-102.1,26.792-144.797
				C2487.126,737.669,2492.382,738.472,2497.606,739.636z"/>
			
				<rect x="2472.996" y="1387.53" transform="matrix(-1 -1.224647e-16 1.224647e-16 -1 4958.417 3148.5381)" style="fill:#4C4272;" width="12.425" height="373.478"/>
			
				<rect x="2657.907" y="1387.53" transform="matrix(-1 -1.224647e-16 1.224647e-16 -1 5328.2402 3148.5381)" style="fill:#4C4272;" width="12.426" height="373.478"/>
			
				<rect x="2424.391" y="1387.53" transform="matrix(-1 -1.224647e-16 1.224647e-16 -1 4861.208 3148.5381)" style="fill:#3A3256;" width="12.427" height="373.478"/>
			
				<rect x="1170.664" y="1077.638" transform="matrix(-1 -1.224647e-16 1.224647e-16 -1 2361.7925 2790.3271)" style="fill:#4C4272;" width="20.464" height="635.052"/>
			<path style="fill:#00027F;" d="M893.802,1149.131c0,0,179.952,50.698,315.741,101.852
				c135.788,51.15-169.564,389.431-169.564,389.431l-64.318-29.234c0,0,147.15-257.787,124.492-280.444
				c-22.656-22.658-245.817-80.609-245.817-80.609L893.802,1149.131z"/>
			<path style="fill:#FF7C4F;" d="M2167.576,1647.599c0,0-12.182,101.968-18.876,101.968s-137.907,0-137.907,0
				s74.643-30.311,88.568-44.237s28.607-61.557,28.607-61.557L2167.576,1647.599z"/>
			<path style="fill:#000C62;" d="M2260.484,1321.957c26.313-26.311,224.937-131.765,224.937-131.765l145.444,43.854
				c0,0-6.576,56.277-32.158,81.857c-25.581,25.581-276.069,71.627-276.069,71.627s-43.302,274.389-43.433,275.209
				c-12.87-0.982-66.759-12.052-79.626-12.35C2201.514,1636.963,2234.174,1348.27,2260.484,1321.957z"/>
			<path style="fill:#00027F;" d="M2430.605,1168.267c0,0-196.924,16.858-245.576,140.615
				c-14.749,37.516-82.649,357.619-82.649,357.619l67.549,8.806c0,0,95.132-238.143,101.71-280.534
				c6.579-42.391,186.441-63.088,222.984-70.396c36.545-7.31,102.376-94.244,102.376-94.244L2430.605,1168.267z"/>
			<path style="fill:#FB9900;" d="M2785.813,1023.553c0,0-11.977,286.505-115.479,363.978h-347.695c0,0-68.57-33.622-68.57-99.399
				c0-65.779,32.892-137.428,211.796-216.342C2644.769,992.877,2785.813,1023.553,2785.813,1023.553z"/>
			<path style="fill:#FFFFFF;" d="M2465.863,1071.789c68.063-30.021,130.646-44.181,182.067-50.204
				c-37.036,9.358-100.741,23.645-143.517,45.033c-178.904,89.455-215.988,155.133-215.988,229.699
				c0,66.249,34.33,80.307,54.291,91.213h-20.079c0,0-68.57-33.622-68.57-99.399
				C2254.067,1222.352,2286.959,1150.703,2465.863,1071.789z"/>
			
				<rect x="2323.823" y="1394.904" transform="matrix(-1 -1.224647e-16 1.224647e-16 -1 4660.0713 3155.9121)" style="fill:#4C4272;" width="12.425" height="366.103"/>
			
				<rect x="2323.823" y="1387.53" transform="matrix(-1 -1.224647e-16 1.224647e-16 -1 4994.1563 2808.6807)" style="fill:#4C4272;" width="346.51" height="33.62"/>
			
				<rect x="1100.152" y="1377.627" transform="matrix(-1 -1.224647e-16 1.224647e-16 -1 2212.7319 3138.6348)" style="fill:#3A3256;" width="12.427" height="383.381"/>
			
				<rect x="799.875" y="1380.14" transform="matrix(-1 -1.224647e-16 1.224647e-16 -1 1612.1748 3141.1475)" style="fill:#3A3256;" width="12.425" height="380.868"/>
			
				<rect x="799.875" y="1368.527" transform="matrix(-1 -1.224647e-16 1.224647e-16 -1 1912.4546 2763.4316)" style="fill:#3A3256;" width="312.705" height="26.377"/>
			<path style="fill:#00083E;" d="M2466.174,489.523c0,0,26.313-20.465,81.86,0c55.53,20.458,46.78,69.161,41.907,100.346
				c-5.131,32.831,44.809,44.017,62.57,62.638c62.236,65.255,86.414,167.822,71.109,255.192
				c-9.783,55.85-61.959,91.854-117.519,86.691c-69.098-6.42-117.2-73.391-120.439-139.427
				c-4.871-99.401,30.21-162.743,0.976-212.443c-29.234-49.7-19.489-76.012-29.234-85.756c-9.746-9.746-21.44-3.411-21.44-3.411
				S2361.344,480.426,2466.174,489.523z"/>
			<path style="fill:#3C5FB3;" d="M1108.923,758.242c0,0,15.35,70.409,9.502,122.057c-4.571,40.385-98.299,185.116-138.966,246.325
				c-11.838,17.821-29.621,30.834-50.183,36.751l-136.336,39.232l-25.337,17.795c0,0-3.899-46.776,6.822-126.687
				c10.718-79.909,186.131-372.261,226.086-372.261C1040.466,721.455,1108.923,758.242,1108.923,758.242z"/>
			<path style="fill:#BBDBFF;" d="M1092.965,795.159c-0.373,0-0.75-0.016-1.128-0.048c-65.387-5.583-88.364-65.398-89.31-67.939
				l-1.506-4.046l0.976-1.653c40.14,0.88,106.926,36.769,106.926,36.769s0.61,2.801,1.542,7.694
				C1108.86,780.213,1105.774,795.159,1092.965,795.159z"/>
			<path style="opacity:0.68;fill:#507EEF;" d="M962.282,755.065l42.64-6.967c0,0,54.149,137.948,80.788,207.167
				c-8.68,15.74-18.502,32.589-28.731,49.573c-3.996-10.453-9.124-21.054-15.017-26.946c-14.363-14.362-30.613-6.424-37.04-12.85
				c-6.424-6.425-61.588-90.708-61.588-142.93C943.334,769.894,962.282,755.065,962.282,755.065z"/>
			<path style="fill:#FF7C4F;" d="M1016.104,889.36c0,0,69.623,154.154,96.475,159.003c29.5,5.326,204.798-6.148,204.798-6.148
				s33.632,0.348,37.491,0c18.822-1.693,38.312-4.13,57.836-8.458c-8.001-10.744-49.994-22.054-62.252-22.535
				c-7.705-0.303-35.17,6.908-39.247,7.219c-9.716,0.742-123.156-13.836-133.876-24.557c-10.718-10.719-94.74-171.771-94.74-171.771
				L1016.104,889.36z"/>
			<path style="fill:#FF5921;" d="M1049.235,957.44c-18.466-35.606-33.131-68.079-33.131-68.079l66.484-67.248
				c0,0,22.433,42.998,45.593,86.038C1108.034,925.463,1076.412,949.667,1049.235,957.44z"/>
			<path style="fill:#FB9900;" d="M1112.58,1356.833c0,0-34.108-72.112-123.763-146.177c-89.655-74.062-294.3-153.972-294.3-153.972
				s-8.771,275.786,104.271,311.843h313.792V1356.833z"/>
			<path style="fill:#FB9900;" d="M809.844,1333.484h289.373c9.211,14.572,13.362,23.349,13.362,23.349v11.694H798.788
				c-88.557-28.248-102.356-203.616-104.179-278.263C711.61,1199.627,744.914,1306.742,809.844,1333.484z"/>
			<path style="fill:#FF7C4F;" d="M1083.695,600.576l-72.668,123.434c0,0,21.167,56.905,81.58,62.065
				c9.214,0.786,8.717-28.847,10.84-37.846l17.807-75.512L1083.695,600.576z"/>
			<path style="fill:#FF5921;" d="M1083.695,600.576l37.559,72.14l-7.498,31.796c-17.59-28.487-31.611-73.225-34.39-96.583
				L1083.695,600.576z"/>
			<path style="fill:#FF7C4F;" d="M1113.302,522.96c0,0-29.606,52.011-29.606,77.617c0,25.606,37.608,100.021,68.815,89.619
				c31.207-10.402,43.209-101.621,43.209-144.03C1195.72,503.756,1133.307,494.954,1113.302,522.96z"/>
			<path style="fill:#000444;" d="M1114.902,479.751c0,0-24.006,0.8-24.006,20.004c0,19.204-24.003,7.202-28.807,30.407
				c-4.8,23.205,13.981,83.365,13.981,83.365s22.827-16.952,38.831-32.955c16.004-16.004,16.804-40.409,24.806-40.409
				s29.605,2.801,56.012,29.206c26.406,26.405,74.415,4,56.812-35.208c-17.603-39.208-47.21-33.606-81.618-37.607
				C1136.508,492.554,1114.902,479.751,1114.902,479.751z"/>
			<path style="fill:#507EEF;" d="M1062.146,754.035c21.807,32.315,51.451,117.247,56.279,126.264
				c12.29,22.949-71.424,60.134-87.017,56.236c-15.591-3.899-61.21-98.859-70.852-134.195c-6.927-25.384-0.881-60.626,23.371-75.515
				C1011.83,709.695,1044.347,727.658,1062.146,754.035z"/>
			<path style="fill:#FFFFFF;" d="M1245.897,781.63v51.858c0,11.912,9.656,21.568,21.568,21.568h18.485
				c11.911,0,21.569-9.656,21.569-21.568v-58.437h-61.622V781.63z"/>
			<g>
				<path style="fill:#BFBFBF;" d="M1315.934,829.868H1305.7v-8.77h10.233c4.836,0,8.771-3.935,8.771-8.771v-8.771
					c0-4.836-3.934-8.771-8.771-8.771h-13.156v-8.771h13.156c9.673,0,17.54,7.87,17.54,17.542v8.771
					C1333.474,822,1325.606,829.868,1315.934,829.868z"/>
			</g>
			<path style="fill:#FFFFFF;" d="M1112.58,1356.833c-23.95-68.542-86.62-136.447-146.25-179.413
				c-64.474-46.953-192.258-101.219-271.813-120.735c182.324,101.749,269.009,128.394,377.186,249.02
				C1086.195,1321.849,1099.959,1338.729,1112.58,1356.833z"/>
			<path style="fill:#FF682B;" d="M1350.125,800.102c0,0-39.512-8-47.667,0.154c-8.155,8.155,39.81,14.798,39.81,14.798
				L1350.125,800.102z"/>
			<path style="fill:#FF682B;" d="M1348.605,828.325c0,0-40.15-3.26-41.07-11.723c-0.922-8.464,37.039-3.09,37.039-3.09
				L1348.605,828.325z"/>
			<path style="fill:#FF682B;" d="M1336.386,798.714c0,0-18.049,0.809-28.866-3.927c-10.818-4.736,20.543-5.741,20.543-5.741
				L1336.386,798.714z"/>
			<path style="fill:#F9F8BD;" d="M978.883,1625.449c0,0-48.399,25.616-48.399,35.801c0,10.186,65.672,95.785,74.917,99.447
				c3.712,1.471,71.556,0.311,74.068-2.204c7.082-7.081-24.109-16.535-35.202-27.629c-11.093-11.095-20.133-27.846-20.133-38.453
				c0-10.608,20.72-39.314,0-39.314C1003.414,1653.097,978.883,1625.449,978.883,1625.449z"/>
			<path style="fill:#E23410;" d="M2158.585,1723.583c0,0-81.634,11.721-92.108,1.246c-10.477-10.476-60.655,18.586-60.655,24.737
				c0,6.149,132.786,11.778,154.706,4.637C2167.896,1751.803,2158.585,1727.363,2158.585,1723.583z"/>
		</g>
	</g>
	<path style="fill:#FFFFFF;" d="M1712.248,177.627v152.987c-26.989,1.783-48.669,29.438-50.359,64.072h-31.61
		c-7.929,0-14.356,8.273-14.356,18.479h4.379c-14.271,0-28.326,4.471-40.954,13.025l-40.443,27.399
		c-0.625,0.21-0.945,0.424-0.945,0.641c0,8.138,354.125,8.143,354.125,0c0-0.202-0.277-0.4-0.817-0.596
		c-27.023-17.216-44.589-40.469-78.705-40.469h1.559c0-10.206-6.427-18.479-14.356-18.479h-31.61
		c-1.69-34.633-23.369-62.289-50.358-64.071V177.627H1712.248z"/>
	<path style="fill:#FFFFFF;" d="M1992.264,141.627v104.388c-18.416,1.216-33.208,20.086-34.361,43.718h-21.569
		c-5.41,0-9.796,5.646-9.796,12.609h2.988c-9.736,0-19.327,3.05-27.943,8.887l-27.597,18.695c-0.427,0.144-0.644,0.29-0.644,0.438
		c0,5.553,241.629,5.556,241.629,0c0-0.138-0.188-0.273-0.558-0.407c-18.439-11.747-30.425-27.613-53.703-27.613h1.063
		c0-6.963-4.386-12.609-9.795-12.609h-21.569c-1.153-23.631-15.945-42.501-34.36-43.717V141.627H1992.264z"/>
</g>
</svg>
