<?xml version="1.0"?>
<svg xmlns:xlink="http://www.w3.org/1999/xlink" xmlns="http://www.w3.org/2000/svg" xmlns:svg="http://www.w3.org/2000/svg" width="24" height="24" viewBox="0 0 6.3500001 6.35" version="1.1" id="svg5" xml:space="preserve">
  <defs id="defs2">
    <linearGradient id="linearGradient3657">
      <stop style="stop-color:#9b58dc;stop-opacity:1;" offset="0" id="stop3653"/>
      <stop style="stop-color:#321c92;stop-opacity:1;" offset="1" id="stop3655"/>
    </linearGradient>
    <linearGradient id="linearGradient945">
      <stop style="stop-color:#9b58dc;stop-opacity:1;" offset="0" id="stop941"/>
      <stop style="stop-color:#321c92;stop-opacity:1;" offset="1" id="stop943"/>
    </linearGradient>
    <linearGradient xlink:href="#linearGradient945" id="linearGradient947" x1="76.787094" y1="113.40435" x2="110.68458" y2="152.48038" gradientUnits="userSpaceOnUse" gradientTransform="matrix(0.10944956,0,0,0.10928531,22.69846,43.977813)"/>
    <linearGradient xlink:href="#linearGradient3657" id="linearGradient3659" x1="76.787094" y1="113.40435" x2="110.68458" y2="152.48038" gradientUnits="userSpaceOnUse" gradientTransform="matrix(0.10944956,0,0,0.10928531,22.69846,43.977813)"/>
  </defs>
  <g id="layer1" transform="translate(-30.394373,-54.680428)">
    <path style="fill:url(#linearGradient3659);fill-opacity:1;stroke:url(#linearGradient947);stroke-width:0.0152021;stroke-dasharray:none" d="m 34.729257,60.720946 c -0.08006,-0.04238 -0.547966,-0.301277 -2.739787,-1.51595 -0.609932,-0.338016 -1.197184,-0.663059 -1.305001,-0.722319 -0.24487,-0.134587 -0.282495,-0.167705 -0.282495,-0.248655 0,-0.04239 0.09773,-0.313901 0.326773,-0.907821 0.179726,-0.466036 0.338666,-0.874435 0.3532,-0.907553 0.0331,-0.07542 0.08643,-0.139471 0.138533,-0.166372 0.04877,-0.02518 1.267483,-0.469582 1.329609,-0.484838 0.06715,-0.01649 0.125079,0.01528 0.159235,0.08732 0.01639,0.03457 0.08451,0.213034 0.151372,0.396574 0.06686,0.183539 0.166402,0.454927 0.221202,0.603084 0.125548,0.339445 0.130236,0.387514 0.04282,0.439077 -0.02317,0.01367 -0.173887,0.07272 -0.334925,0.131225 -0.16104,0.05851 -0.314704,0.119101 -0.341475,0.134653 -0.06175,0.03587 -0.07105,0.09128 -0.02278,0.135812 0.01918,0.0177 0.328824,0.194059 0.688099,0.391917 1.004193,0.553022 0.948446,0.527997 1.015432,0.455826 0.03282,-0.03536 0.632773,-1.559064 0.667201,-1.694492 0.01471,-0.05787 0.0131,-0.06591 -0.01827,-0.09127 -0.04287,-0.03466 -0.03667,-0.03614 -0.431009,0.103067 -0.390666,0.137909 -0.427867,0.14083 -0.480203,0.03769 -0.02748,-0.05416 -0.448284,-1.208129 -0.474405,-1.300968 -0.0169,-0.06005 0.0038,-0.117121 0.0544,-0.150247 0.02104,-0.01377 0.327267,-0.131072 0.680492,-0.260674 0.52418,-0.192327 0.657584,-0.235884 0.725779,-0.236971 0.08796,-0.0014 0.09951,0.0046 1.712353,0.895701 0.111753,0.06174 0.171375,0.126728 0.171375,0.186796 0,0.02384 -0.399906,1.083029 -0.888683,2.353755 -0.689335,1.792144 -0.897394,2.318066 -0.927519,2.344539 -0.05121,0.045 -0.09316,0.04305 -0.191312,-0.0089 z" id="path1"/>
  </g>
</svg>
