<?xml version="1.0" encoding="UTF-8" standalone="no"?>
<svg
   version="1.1"
   id="Layer_1"
   x="0px"
   y="0px"
   viewBox="0 0 24 24"
   xml:space="preserve"
   width="24"
   height="24"
   xmlns="http://www.w3.org/2000/svg"
   xmlns:svg="http://www.w3.org/2000/svg"><defs
   id="defs1" />
<style
   type="text/css"
   id="style1">
	.st0{fill:#4B3FD7;}
</style>
<path
   class="st0"
   d="m 23.167823,12.609948 c -0.0065,-0.133732 -0.01631,-0.264202 -0.02609,-0.397934 C 22.720962,8.5816798 20.564941,5.5156292 17.53477,3.8390867 l -0.05545,-0.029356 v 0 l 0.300082,-0.5186192 1.562381,-2.70399564 c 0.03262,-0.0554499 0.05219,-0.12068496 0.05219,-0.19244359 0,-0.21527589 -0.172873,-0.38814896 -0.388149,-0.38814896 -0.143517,0 -0.267464,0.07828214 -0.332699,0.1924436 v 0 L 17.110742,2.9029628 16.787828,3.460723 C 15.382011,2.8148954 13.734824,2.4365317 11.99957,2.4365317 c -1.705898,0 -3.3269909,0.3653166 -4.7882575,1.0209296 v 0.00326 l -0.071759,0.029356 c 0.022832,-0.00979 0.048926,-0.022832 0.071759,-0.032618 L 6.8916604,2.899701 5.3292793,0.1924436 C 5.2607825,0.07502039 5.1368357,0 4.9933185,0 4.7780426,0 4.6051695,0.17287306 4.6051695,0.38814895 c 0,0.0717586 0.019571,0.13699375 0.052188,0.19570536 v 0 L 6.2197387,3.2911117 6.5198202,3.8097309 C 3.4407227,5.5123675 1.284702,8.5718945 0.8606737,12.159826 c -0.013047,0.150041 -0.0228323,0.300082 -0.0293558,0.450122 -0.009785,0.189182 -0.013047,0.381626 -0.013047,0.574069 0,4.951346 3.0171242,9.172058 7.2574069,10.815983 L 10.652465,16.902419 C 9.1944601,16.338135 8.1572217,14.886654 8.1572217,13.184017 c 0,-0.195705 0.013047,-0.388149 0.039141,-0.574069 0.2707257,-1.921174 1.8689863,-3.3954875 3.8032073,-3.3954875 1.934222,0 3.535744,1.4743135 3.803208,3.3954875 0.02609,0.189182 0.03914,0.378364 0.03914,0.574069 0,1.702637 -1.037239,3.154118 -2.495244,3.718402 L 15.923463,24 c 4.240282,-1.643925 7.257407,-5.864637 7.257407,-10.815983 0.0033,-0.192443 -0.0033,-0.384887 -0.01305,-0.574069 z M 6.8492576,7.5607502 c 0.5153574,0 0.9328622,0.4175048 0.9328622,0.9328622 0,0.5153574 -0.4175048,0.9296004 -0.9328622,0.9328622 -0.5153575,0 -0.9328622,-0.4175048 -0.9328622,-0.9328622 0.00326,-0.5153574 0.4207665,-0.9328622 0.9328622,-0.9328622 z m 10.2973634,0 c 0.515358,0 0.932862,0.4175048 0.932862,0.9328622 0,0.5153574 -0.417504,0.9296004 -0.932862,0.9328622 -0.515357,0 -0.932862,-0.4175048 -0.932862,-0.9328622 0,-0.5153574 0.417505,-0.9328622 0.932862,-0.9328622 z"
   id="path1"
   style="stroke-width:0.0326176" />
</svg>
